HIERARCHY
ROOT Hips
{
 OFFSET 0.000000 0.000000 0.000000
 CHANNELS 6 Xposition Yposition Zposition Yrotation Xrotation Zrotation
 JOINT Chest
 {
  OFFSET 0.000000 9.585900 0.002600
  CHANNELS 3 Yrotation Xrotation Zrotation
  JOINT Chest2
  {
   OFFSET 0.000000 9.601200 -0.005300
   CHANNELS 3 Yrotation Xrotation Zrotation
   JOINT Chest3
   {
    OFFSET 0.000000 9.561800 0.000000
    CHANNELS 3 Yrotation Xrotation Zrotation
    JOINT Chest4
    {
     OFFSET 0.000000 9.552100 0.000000
     CHANNELS 3 Yrotation Xrotation Zrotation
     JOINT Neck
     {
      OFFSET 0.000000 14.453000 0.000000
      CHANNELS 3 Yrotation Xrotation Zrotation
      JOINT Head
      {
       OFFSET 0.000000 8.936500 -0.011300
       CHANNELS 3 Yrotation Xrotation Zrotation
       End Site
       {
        OFFSET 0.000000 17.073600 -0.006000
       }
      }
     }
     JOINT RightCollar
     {
      OFFSET -2.921100 9.558500 0.000000
      CHANNELS 3 Yrotation Xrotation Zrotation
      JOINT RightShoulder
      {
       OFFSET -13.519700 0.000000 0.000000
       CHANNELS 3 Yrotation Xrotation Zrotation
       JOINT RightElbow
       {
        OFFSET 0.000000 -29.696600 0.000000
        CHANNELS 3 Yrotation Xrotation Zrotation
        JOINT RightWrist
        {
         OFFSET 0.000000 -24.004700 0.000000
         CHANNELS 3 Yrotation Xrotation Zrotation
         End Site
         {
          OFFSET 0.000000 -17.728500 0.000000
         }
        }
       }
      }
     }
     JOINT LeftCollar
     {
      OFFSET 2.921100 9.558500 0.000000
      CHANNELS 3 Yrotation Xrotation Zrotation
      JOINT LeftShoulder
      {
       OFFSET 13.519700 0.000000 0.000000
       CHANNELS 3 Yrotation Xrotation Zrotation
       JOINT LeftElbow
       {
        OFFSET 0.000000 -29.696600 0.000000
        CHANNELS 3 Yrotation Xrotation Zrotation
        JOINT LeftWrist
        {
         OFFSET 0.000000 -24.004700 0.000000
         CHANNELS 3 Yrotation Xrotation Zrotation
         End Site
         {
          OFFSET 0.000000 -17.728500 0.000000
         }
        }
       }
      }
     }
    }
   }
  }
 }
 JOINT RightHip
 {
  OFFSET -7.771700 -0.012900 -0.001300
  CHANNELS 3 Yrotation Xrotation Zrotation
  JOINT RightKnee
  {
   OFFSET 0.000000 -40.869800 0.001200
   CHANNELS 3 Yrotation Xrotation Zrotation
   JOINT RightAnkle
   {
    OFFSET 0.000000 -39.717900 0.002100
    CHANNELS 3 Yrotation Xrotation Zrotation
    JOINT RightToe
    {
     OFFSET 0.000000 -4.965400 11.033500
     CHANNELS 3 Yrotation Xrotation Zrotation
     End Site
     {
      OFFSET 0.000000 -1.423100 5.872300
     }
    }
   }
  }
 }
 JOINT LeftHip
 {
  OFFSET 7.771700 -0.012900 -0.001300
  CHANNELS 3 Yrotation Xrotation Zrotation
  JOINT LeftKnee
  {
   OFFSET 0.000000 -40.869800 0.001200
   CHANNELS 3 Yrotation Xrotation Zrotation
   JOINT LeftAnkle
   {
    OFFSET 0.000000 -39.717900 0.002100
    CHANNELS 3 Yrotation Xrotation Zrotation
    JOINT LeftToe
    {
     OFFSET 0.000000 -4.965400 11.033500
     CHANNELS 3 Yrotation Xrotation Zrotation
     End Site
     {
      OFFSET 0.000000 -1.423100 5.872300
     }
    }
   }
  }
 }
}
MOTION
Frames: 6
Frame Time: 0.008333
-225.844358 57.519537 135.173191 179.524445 -25.496465 -0.928825 -0.034915 17.628526 2.639316 -0.067593 1.924292 0.292076 -0.106919 3.195564 0.484136 -0.297826 15.411727 2.317917 1.800804 11.582729 -1.326367 3.925720 -14.179575 -3.318896 2.429422 -3.074037 -1.210454 9.017011 -12.372296 -19.857372 134.539341 -75.047839 -93.578823 14.473002 -18.579756 -50.344708 -5.973001 -4.377356 -1.866053 2.471141 -9.604994 0.806560 -107.583936 -75.679950 69.998069 -13.239314 -5.126255 10.189187 4.316066 -50.499812 -4.865667 -8.118020 69.940238 -12.974591 4.704828 21.991345 4.559935 -0.699905 -16.253946 5.190139 -8.937274 -48.042124 2.227758 33.728486 70.501704 35.098973 -15.305536 1.012845 -5.431836 -0.098671 0.126590 -0.078968
-225.834072 57.520462 135.179167 179.519600 -25.489943 -0.955077 -0.040655 17.626933 2.653277 -0.092311 1.930050 0.282922 -0.083072 3.190632 0.493242 -0.308030 15.413421 2.319440 1.795263 11.592005 -1.342493 3.896994 -14.154301 -3.351386 2.447754 -3.081881 -1.222790 9.005701 -12.362179 -19.854333 134.713642 -75.034847 -93.759580 14.469391 -18.574782 -50.320008 -5.949486 -4.381719 -1.862015 2.470541 -9.601729 0.801384 -107.428285 -75.790206 69.750119 -13.276215 -5.122302 10.270482 4.303225 -50.505114 -4.812205 -8.112365 69.924997 -12.970501 4.684346 22.009745 4.583856 -0.689368 -16.258526 5.169654 -8.970052 -48.044586 2.266909 33.679445 70.503465 35.082338 -15.311795 1.017066 -5.456395 -0.075058 0.124761 -0.078027
-225.824287 57.521262 135.184441 179.510085 -25.486123 -0.977719 -0.047590 17.629821 2.663268 -0.086825 1.927547 0.287974 -0.117633 3.197523 0.484260 -0.287897 15.408812 2.326846 1.743402 11.614957 -1.374457 3.926478 -14.152343 -3.377594 2.475793 -3.088270 -1.232583 8.996842 -12.355193 -19.855340 134.876483 -75.003818 -93.948790 14.433351 -18.560948 -50.273015 -5.946579 -4.384138 -1.845682 2.464308 -9.589981 0.788784 -107.396116 -75.810651 69.732809 -13.222290 -5.135500 10.271139 4.288899 -50.508607 -4.763833 -8.138337 69.914136 -12.996035 4.690467 22.011019 4.637536 -0.690512 -16.252611 5.122015 -9.007830 -48.045533 2.300697 33.668215 70.500759 35.101009 -15.305001 1.021229 -5.485706 -0.066088 0.122330 -0.075820
-225.819707 57.522130 135.188417 179.501768 -25.487902 -0.971409 -0.064438 17.635713 2.646876 -0.069995 1.925236 0.292832 -0.138678 3.199772 0.482056 -0.295990 15.410036 2.325810 1.732860 11.624218 -1.393412 3.942003 -14.150224 -3.392268 2.503979 -3.095080 -1.243098 8.998303 -12.350445 -19.852651 134.931349 -74.988230 -94.014238 14.420361 -18.557033 -50.253938 -5.995768 -4.389219 -1.810617 2.449535 -9.578692 0.782831 -107.304433 -75.841416 69.713654 -13.172819 -5.145067 10.269320 4.302911 -50.506130 -4.762885 -8.127107 69.908097 -12.986026 4.686780 22.011479 4.656085 -0.673209 -16.248268 5.100401 -9.026309 -48.041871 2.283997 33.718080 70.482263 35.167744 -15.282673 1.027302 -5.504223 -0.090658 0.123928 -0.072813
-225.814383 57.522801 135.192082 179.494212 -25.489257 -0.971923 -0.100666 17.642461 2.631288 -0.054556 1.923491 0.294450 -0.136502 3.201417 0.482747 -0.302463 15.411242 2.323824 1.720565 11.634254 -1.411458 3.954328 -14.149589 -3.406138 2.513797 -3.113924 -1.263528 9.005168 -12.331328 -19.850547 135.030197 -74.987652 -94.113726 14.426126 -18.557091 -50.243614 -6.011308 -4.398985 -1.796968 2.444983 -9.571047 0.790385 -107.100338 -75.934669 69.449259 -13.202797 -5.144846 10.343489 4.303017 -50.504131 -4.746841 -8.125541 69.900913 -12.989185 4.682385 22.010958 4.682505 -0.669518 -16.241709 5.075178 -9.034516 -48.037489 2.284028 33.725203 70.473537 35.189053 -15.276030 1.028623 -5.522361 -0.088621 0.123482 -0.071738
-225.809536 57.523260 135.195545 179.484468 -25.489575 -0.971028 -0.096507 17.643589 2.632503 -0.087389 1.928189 0.288823 -0.115622 3.198814 0.485054 -0.306109 15.411888 2.322450 1.700446 11.646261 -1.427957 3.893282 -14.102584 -3.456297 2.522897 -3.125126 -1.270334 8.991367 -12.308915 -19.881847 135.229816 -74.995071 -94.304655 14.430894 -18.558055 -50.226005 -6.035736 -4.412216 -1.782308 2.434572 -9.561325 0.802042 -106.934036 -75.999077 69.249930 -13.204654 -5.151176 10.386469 4.300649 -50.502157 -4.725759 -8.126470 69.889389 -13.002200 4.680983 22.014738 4.718884 -0.665708 -16.236980 5.044780 -9.032962 -48.036080 2.287415 33.728935 70.470436 35.197161 -15.274865 1.035058 -5.517771 -0.089984 0.122018 -0.073916
